<svg xmlns="http://www.w3.org/2000/svg" viewBox="0 0 1440 320"><path fill="#db2777" fill-opacity="0.1" d="M0,96L34.3,85.3C68.6,75,137,53,206,80C274.3,107,343,181,411,208C480,235,549,213,617,218.7C685.7,224,754,256,823,224C891.4,192,960,96,1029,96C1097.1,96,1166,192,1234,197.3C1302.9,203,1371,117,1406,74.7L1440,32L1440,320L1405.7,320C1371.4,320,1303,320,1234,320C1165.7,320,1097,320,1029,320C960,320,891,320,823,320C754.3,320,686,320,617,320C548.6,320,480,320,411,320C342.9,320,274,320,206,320C137.1,320,69,320,34,320L0,320Z"></path></svg>