<svg width="402" height="404" viewBox="0 0 402 404" fill="none" xmlns="http://www.w3.org/2000/svg">
<path d="M126.38 109.29C127.47 110.87 128.56 111.74 129.65 111.89C130.58 112.02 131.67 111.66 132.89 110.81C134.16 109.93 134.88 109.04 135.04 108.15C135.3 107.12 134.87 105.8 133.75 104.18L116.79 79.73C115.67 78.11 114.58 77.24 113.52 77.13C112.63 76.97 111.55 77.33 110.28 78.21C109.05 79.06 108.34 79.95 108.13 80.87C107.9 81.94 108.33 83.26 109.42 84.84L126.38 109.29Z" fill="white" stroke="black" stroke-width="2"/>
<path d="M67.26 227.48C66.35 226.87 64.96 226.79 63.09 227.24L57.25 228.63C55.43 229.06 54.23 229.76 53.64 230.72C53.18 231.54 53.12 232.68 53.46 234.13L54.5 238.49L69.99 234.81L68.95 230.45C68.6 229 68.04 228.01 67.26 227.48Z" fill="white" stroke="black" stroke-width="2"/>
<path d="M181.52 334.33C180.63 334.97 180.08 336.25 179.84 338.16L179.11 344.11C178.88 345.96 179.11 347.34 179.82 348.23C180.43 348.95 181.48 349.4 182.96 349.58L187.41 350.12L189.35 334.32L184.9 333.78C183.42 333.6 182.29 333.78 181.53 334.33H181.52Z" fill="white" stroke="black" stroke-width="2"/>
<path d="M99.96 299.02L116.79 287.52L111.88 282.48L99.96 299.02Z" fill="white" stroke="black" stroke-width="2"/>
<path d="M201 1.89001C90.55 1.89001 1 91.65 1 202.39C1 313.13 90.55 402.89 201 402.89C311.45 402.89 401 313.12 401 202.39C401 91.66 311.46 1.89001 201 1.89001ZM356.86 158.68L358.76 167.27L306.5 190.3L304.57 181.55L312.9 178.07L310.72 168.23L301.7 168.59L299.76 159.84L356.86 158.68ZM293.74 72.86L300.67 79.15L294.1 95.55L309.79 87.43L316.78 93.78L290.15 107.52L279.14 135.24L272.21 128.95L278.72 112.49L263.03 120.61L256.1 114.32L282.57 100.64L293.75 72.86H293.74ZM195.09 41.87L218.25 43.17L217.76 51.96L203.38 51.15L202.59 65.21L212.49 65.77L212 74.56L202.09 74L201.22 89.49L215.6 90.3L215.11 99.09L191.95 97.79L195.1 41.88L195.09 41.87ZM99.51 78.96C100.19 75.82 102.11 73.16 105.27 70.98C108.42 68.79 111.59 67.93 114.76 68.39C118.41 68.97 121.5 71.08 124.02 74.72L140.98 99.17C143.5 102.81 144.4 106.44 143.67 110.06C142.99 113.2 141.07 115.86 137.91 118.05C134.76 120.24 131.59 121.1 128.42 120.64C124.77 120.06 121.68 117.95 119.16 114.31L102.2 89.86C99.68 86.22 98.78 82.59 99.51 78.97V78.96ZM75.06 98.89L109.69 124.18C113.18 126.73 115.21 129.86 115.8 133.59C116.12 136.86 115.18 140 112.98 143.02C110.72 146.12 108.01 147.97 104.86 148.58C101.22 149.22 97.61 148.24 94.04 145.63L88.42 141.53L93.61 134.42L99.23 138.52C100.82 139.68 102.12 140.17 103.12 139.97C104.05 139.79 104.96 139.07 105.88 137.82C106.76 136.61 107.15 135.54 107.04 134.61C106.91 133.52 106.07 132.41 104.52 131.28L69.89 105.99L75.08 98.88L75.06 98.89ZM42.21 172.95L50.97 173.75L49.66 188.09L63.68 189.38L64.58 179.5L73.34 180.3L72.43 190.18L87.89 191.6L89.2 177.26L97.96 178.06L95.84 201.16L40.07 196.05L42.19 172.95H42.21ZM44.92 236.16C44.05 232.48 44.42 229.21 46.04 226.36C47.81 223.2 50.88 221.1 55.23 220.06L61.07 218.67C65.48 217.62 69.19 218.11 72.19 220.14C72.64 220.42 73.08 220.75 73.5 221.15L96.39 210.53L98.46 219.25L77.64 228.88L78.56 232.77L100.43 227.58L102.46 236.14L47.98 249.08L44.91 236.16H44.92ZM58.31 272.38L107.5 245.62L111.71 253.35L62.52 280.11L58.31 272.38ZM83.84 308.59L116.13 261.49L122.38 267.91L117.14 275.25L124.18 282.47L131.66 277.42L137.91 283.84L89.99 314.9L83.85 308.6L83.84 308.59ZM162.2 310.86L159 317.4L151.1 313.53L154.3 306.99C155.15 305.27 155.37 303.89 154.98 302.87C154.64 301.99 153.8 301.22 152.46 300.56C151.07 299.88 149.95 299.69 149.09 299.98C148.07 300.25 147.12 301.27 146.25 303.05L144.7 306.21C143.62 308.41 143.57 310.76 144.54 313.26C144.76 313.78 145.46 314.9 146.64 316.61C148.3 318.91 149.44 320.77 150.05 322.2C151.02 324.58 151.48 326.97 151.43 329.38C151.38 331.79 150.8 334.12 149.7 336.37L149.1 337.59C147.15 341.56 144.42 344.12 140.9 345.24C137.83 346.17 134.57 345.79 131.12 344.1C127.67 342.41 125.38 340.07 124.23 337.07C122.96 333.6 123.3 329.87 125.25 325.9L127.4 321.52L135.3 325.39L133.15 329.77C132.28 331.54 132.05 332.92 132.47 333.89C132.76 334.75 133.6 335.51 134.99 336.19C136.33 336.85 137.45 337.04 138.36 336.77C139.41 336.45 140.35 335.43 141.2 333.71L141.8 332.49C142.88 330.29 142.92 327.96 141.92 325.51C141.63 324.89 140.98 323.86 139.96 322.41C138.13 319.85 136.94 317.9 136.41 316.57C134.42 311.67 134.54 306.92 136.8 302.33L138.35 299.17C140.3 295.2 143.03 292.64 146.55 291.52C149.62 290.59 152.88 290.97 156.33 292.66C159.78 294.35 162.07 296.69 163.22 299.69C164.49 303.16 164.15 306.89 162.2 310.86ZM159.73 84.52L139.69 52.36L148.64 49.9L159.67 67.69L160.21 46.72L169.16 44.26L168.3 82.16L173.52 101.14L164.96 103.49L159.74 84.51L159.73 84.52ZM195.09 359.92L181.91 358.3C178.15 357.84 175.22 356.35 173.11 353.84C170.76 351.08 169.86 347.48 170.4 343.03L171.13 337.07C171.68 332.57 173.43 329.27 176.38 327.16C176.8 326.83 177.26 326.54 177.78 326.28L175.78 301.13L184.67 302.22L186.46 325.09L190.43 325.58L193.16 303.27L201.89 304.34L195.08 359.93L195.09 359.92ZM222.52 358.44L220.75 349.82L234.86 346.92L232.03 333.13L222.31 335.13L220.54 326.51L230.26 324.52L227.14 309.32L213.03 312.22L211.26 303.6L233.99 298.93L245.26 353.79L222.53 358.46L222.52 358.44ZM245.87 106.56C242.77 107.66 239.5 107.52 236.04 106.11C232.48 104.67 230.03 102.49 228.67 99.58C227.16 96.2 227.24 92.47 228.9 88.37L245.01 48.63L253.17 51.94L237.06 91.68C236.32 93.51 236.16 94.88 236.59 95.81C236.99 96.66 237.91 97.38 239.34 97.96C240.72 98.52 241.86 98.63 242.74 98.3C243.76 97.91 244.63 96.82 245.35 95.04L261.46 55.3L269.61 58.61L253.5 98.35C251.88 102.35 249.33 105.09 245.85 106.56H245.87ZM289.04 333.53L264.13 304.28L277.59 340.26L269.87 344.8L251.13 290.85L258.72 286.39L296.76 328.98L289.04 333.52V333.53ZM314.07 313.2L273.85 274.24L279.97 267.92L320.19 306.88L314.07 313.2ZM347.21 266.56L315.91 264.92L340.83 278.38L336.65 286.12L287.38 259.5L289.81 254.99L321.19 256.66L296.2 243.16L300.38 235.42L349.65 262.03L347.22 266.54L347.21 266.56ZM359.82 224.65L358.6 233.36L303.14 225.61L303.85 220.54L333.84 211.16L305.71 207.23L306.93 198.51L362.39 206.26L361.68 211.33L331.77 220.72L359.82 224.64V224.65Z" fill="white" stroke="black" stroke-width="2"/>
<path d="M340 166.92L319.64 167.82L321.16 174.7L340 166.92Z" fill="white" stroke="black" stroke-width="2"/>
</svg>
